<?xml version="1.0" encoding="iso-8859-1"?>
<!-- Uploaded to: SVG Repo, www.svgrepo.com, Generator: SVG Repo Mixer Tools -->
<svg version="1.1" id="Layer_1" xmlns="http://www.w3.org/2000/svg" xmlns:xlink="http://www.w3.org/1999/xlink" 
	 viewBox="0 0 512 512" xml:space="preserve">
<path style="fill:#F59D00;" d="M455.356,512H56.644c-12.353,0-22.368-10.015-22.368-22.368V312.676
	c0-12.353,10.015-22.368,22.368-22.368h398.713c12.353,0,22.368,10.015,22.368,22.368v176.956
	C477.724,501.985,467.71,512,455.356,512z"/>
<path style="fill:#F2C500;" d="M477.724,335.044H34.276V113.351h443.449V335.044z"/>
<path style="fill:#E87E04;" d="M342.281,512H169.719V387.291c0-12.353,10.015-22.368,22.368-22.368h127.825
	c12.353,0,22.368,10.015,22.368,22.368V512L342.281,512z"/>
<path style="fill:#F59D00;" d="M486.614,158.088H25.386c-7.404,0-14.328-3.664-18.493-9.785c-4.165-6.121-5.031-13.907-2.314-20.795
	L49.316,14.156C52.689,5.614,60.938,0,70.123,0h371.755c9.184,0,17.434,5.614,20.807,14.156l44.736,113.351
	c2.717,6.888,1.851,14.674-2.314,20.795S494.017,158.088,486.614,158.088z"/>
<g>
	<path style="fill:#E87E04;" d="M114.334,247.616h-9.763c-12.353,0-22.368-10.015-22.368-22.368
		c0-12.353,10.015-22.368,22.368-22.368h9.763c12.353,0,22.368,10.015,22.368,22.368
		C136.702,237.601,126.689,247.616,114.334,247.616z"/>
	<path style="fill:#E87E04;" d="M407.427,247.616h-9.763c-12.353,0-22.368-10.015-22.368-22.368
		c0-12.353,10.015-22.368,22.368-22.368h9.763c12.353,0,22.368,10.015,22.368,22.368
		C429.795,237.601,419.782,247.616,407.427,247.616z"/>
	<path style="fill:#E87E04;" d="M114.334,424.57h-9.763c-12.353,0-22.368-10.015-22.368-22.368
		c0-12.353,10.015-22.368,22.368-22.368h9.763c12.353,0,22.368,10.015,22.368,22.368C136.702,414.557,126.689,424.57,114.334,424.57
		z"/>
	<path style="fill:#E87E04;" d="M407.427,424.57h-9.763c-12.353,0-22.368-10.015-22.368-22.368
		c0-12.353,10.015-22.368,22.368-22.368h9.763c12.353,0,22.368,10.015,22.368,22.368C429.795,414.557,419.782,424.57,407.427,424.57
		z"/>
	<path style="fill:#E87E04;" d="M342.281,335.044H169.719V210.335c0-12.353,10.015-22.368,22.368-22.368h127.825
		c12.353,0,22.368,10.015,22.368,22.368V335.044L342.281,335.044z"/>
	<path style="fill:#E87E04;" d="M455.356,290.308H255.999V512h199.357c12.353,0,22.368-10.015,22.368-22.368V312.676
		C477.724,300.323,467.71,290.308,455.356,290.308z"/>
</g>
<rect x="255.996" y="113.347" style="fill:#F59D00;" width="221.728" height="221.698"/>
<path style="fill:#D55400;" d="M342.281,387.29c0-12.353-10.015-22.368-22.368-22.368h-63.912v147.077h86.28V387.29L342.281,387.29z
	"/>
<path style="fill:#E87E04;" d="M507.42,127.508L462.684,14.156C459.311,5.614,451.062,0,441.877,0H255.999v158.088h230.613
	c7.404,0,14.328-3.664,18.493-9.785C509.271,142.181,510.137,134.394,507.42,127.508z"/>
<g>
	<path style="fill:#D55400;" d="M407.427,247.616h-9.763c-12.353,0-22.368-10.015-22.368-22.368
		c0-12.353,10.015-22.368,22.368-22.368h9.763c12.353,0,22.368,10.015,22.368,22.368
		C429.795,237.601,419.782,247.616,407.427,247.616z"/>
	<path style="fill:#D55400;" d="M407.427,424.57h-9.763c-12.353,0-22.368-10.015-22.368-22.368
		c0-12.353,10.015-22.368,22.368-22.368h9.763c12.353,0,22.368,10.015,22.368,22.368C429.795,414.557,419.782,424.57,407.427,424.57
		z"/>
	<path style="fill:#D55400;" d="M342.281,210.335c0-12.353-10.015-22.368-22.368-22.368h-63.912v147.077h86.28V210.335
		L342.281,210.335z"/>
</g>
</svg>